<svg width="22" height="22" viewBox="0 0 22 22" fill="none" xmlns="http://www.w3.org/2000/svg">
<g opacity="0.63">
<path d="M17.4163 3.66683H15.583V2.75016C15.583 2.50705 15.4864 2.27389 15.3145 2.10198C15.1426 1.93007 14.9095 1.8335 14.6663 1.8335C14.4232 1.8335 14.1901 1.93007 14.0182 2.10198C13.8463 2.27389 13.7497 2.50705 13.7497 2.75016V3.66683H8.24967V2.75016C8.24967 2.50705 8.1531 2.27389 7.98119 2.10198C7.80928 1.93007 7.57612 1.8335 7.33301 1.8335C7.08989 1.8335 6.85673 1.93007 6.68483 2.10198C6.51292 2.27389 6.41634 2.50705 6.41634 2.75016V3.66683H4.58301C3.85366 3.66683 3.15419 3.95656 2.63846 4.47229C2.12274 4.98801 1.83301 5.68748 1.83301 6.41683V17.4168C1.83301 18.1462 2.12274 18.8456 2.63846 19.3614C3.15419 19.8771 3.85366 20.1668 4.58301 20.1668H17.4163C18.1457 20.1668 18.8452 19.8771 19.3609 19.3614C19.8766 18.8456 20.1663 18.1462 20.1663 17.4168V6.41683C20.1663 5.68748 19.8766 4.98801 19.3609 4.47229C18.8452 3.95656 18.1457 3.66683 17.4163 3.66683ZM18.333 17.4168C18.333 17.6599 18.2364 17.8931 18.0645 18.065C17.8926 18.2369 17.6595 18.3335 17.4163 18.3335H4.58301C4.33989 18.3335 4.10673 18.2369 3.93483 18.065C3.76292 17.8931 3.66634 17.6599 3.66634 17.4168V11.0002H18.333V17.4168ZM18.333 9.16683H3.66634V6.41683C3.66634 6.17371 3.76292 5.94056 3.93483 5.76865C4.10673 5.59674 4.33989 5.50016 4.58301 5.50016H6.41634V6.41683C6.41634 6.65994 6.51292 6.8931 6.68483 7.06501C6.85673 7.23692 7.08989 7.3335 7.33301 7.3335C7.57612 7.3335 7.80928 7.23692 7.98119 7.06501C8.1531 6.8931 8.24967 6.65994 8.24967 6.41683V5.50016H13.7497V6.41683C13.7497 6.65994 13.8463 6.8931 14.0182 7.06501C14.1901 7.23692 14.4232 7.3335 14.6663 7.3335C14.9095 7.3335 15.1426 7.23692 15.3145 7.06501C15.4864 6.8931 15.583 6.65994 15.583 6.41683V5.50016H17.4163C17.6595 5.50016 17.8926 5.59674 18.0645 5.76865C18.2364 5.94056 18.333 6.17371 18.333 6.41683V9.16683Z" fill="#0B6A8C"/>
</g>
</svg>
