<svg width="24" height="24" viewBox="0 0 24 24" fill="none" xmlns="http://www.w3.org/2000/svg">
<path d="M11.0134 0.478764C8.84734 0.699158 6.84754 1.47728 5.12188 2.77715C4.57811 3.18645 3.71977 4.00955 3.22993 4.59427C2.25475 5.75471 1.45483 7.25698 1.0324 8.72776C0.28192 11.3365 0.470664 14.1476 1.55819 16.5989L1.7784 17.0937L1.17172 19.7609C0.839166 21.2272 0.565037 22.4866 0.565037 22.5541C0.565037 22.752 0.789733 23.1568 0.964996 23.2737C1.17172 23.4086 1.44135 23.4761 1.63908 23.4401C1.72896 23.4221 2.9558 23.1478 4.3669 22.8284L6.93293 22.2482L7.31941 22.4236C9.66523 23.5031 12.3167 23.7415 14.8557 23.1028C16.833 22.608 18.6216 21.605 20.1091 20.1567C22.2617 18.0652 23.4301 15.416 23.556 12.344C23.6683 9.62283 22.7336 6.83418 20.9899 4.68423C20.545 4.13549 19.5609 3.18195 19.0126 2.76815C17.3903 1.54925 15.5208 0.784616 13.5075 0.523743C12.9907 0.456276 11.5122 0.429289 11.0134 0.478764ZM17.3364 9.21803C17.5611 9.34846 17.7453 9.60484 17.7992 9.87021C17.8756 10.2345 17.6195 10.7113 17.2645 10.8732C17.0892 10.9542 16.8465 10.9587 12.0695 10.9587C7.29244 10.9587 7.04977 10.9542 6.87451 10.8732C6.51949 10.7113 6.26333 10.2345 6.33973 9.87021C6.41163 9.51938 6.68576 9.21803 7.0273 9.11458C7.09471 9.09209 9.3956 9.07859 12.1369 9.08309L17.1251 9.09209L17.3364 9.21803ZM14.8782 13.0232C15.2107 13.1761 15.395 13.482 15.395 13.8823C15.395 14.2961 15.0984 14.6739 14.6939 14.7773C14.4558 14.8403 7.3239 14.8448 7.06775 14.7863C6.70374 14.7009 6.39366 14.3635 6.33524 13.9902C6.28131 13.6124 6.50601 13.2076 6.879 13.0142C7.00034 12.9512 7.44524 12.9422 10.8561 12.9422C14.4962 12.9377 14.7074 12.9422 14.8782 13.0232Z" fill="white"/>
</svg>
