<svg width="39" height="36" viewBox="0 0 39 36" fill="none" xmlns="http://www.w3.org/2000/svg">
<path d="M8.9495 3.36851C8.68102 3.48358 8.46367 3.68175 8.32304 3.93745C8.23354 4.09087 8.20797 4.38492 8.1824 5.49722L8.15044 6.87161L7.38334 6.98028C5.2866 7.28073 3.6693 8.00947 2.3844 9.23044C1.0228 10.5281 0.370765 12.0495 0.377158 13.9417C0.38355 15.7636 0.888558 17.0165 2.09035 18.1672C2.62093 18.685 3.43917 19.2219 4.27019 19.6119C4.79438 19.8612 6.72491 20.5324 7.83082 20.852L8.15044 20.9479L8.16962 25.0583L8.1824 29.1751L7.81164 29.1303C6.33497 28.9641 4.32133 28.0755 2.91498 26.9632C2.26295 26.4518 1.82826 26.3304 1.26572 26.4966C0.530578 26.7075 0 27.4107 0 28.1842C0 28.8363 0.166205 29.1303 0.875773 29.712C2.1351 30.7476 3.925 31.6617 5.49755 32.0645C6.09206 32.2179 7.26828 32.4161 7.60708 32.4161C8.22076 32.4224 8.1824 32.3266 8.1824 33.7585C8.1824 34.9539 8.1888 35.0306 8.32943 35.2991C8.71937 36.0406 9.69743 36.2132 10.3303 35.6571C10.7458 35.2991 10.765 35.2096 10.7905 33.7457L10.8161 32.4224L11.1805 32.3841C14.6516 32.0197 17.0936 30.4536 18.1227 27.9285C18.7236 26.4646 18.8451 24.4062 18.4104 22.9743C17.6689 20.5324 15.6744 19.011 11.6727 17.8475L10.8353 17.5982L10.8161 13.9545L10.8033 10.3108L11.2316 10.4067C12.3695 10.656 13.5777 11.1738 14.5174 11.8066C15.3228 12.3436 15.4954 12.4203 15.9237 12.4139C16.8826 12.4139 17.6561 11.6404 17.6561 10.6879C17.6561 9.95919 17.362 9.58203 16.1794 8.79575C14.6644 7.79213 12.9384 7.17205 11.1741 6.99946L10.7394 6.9611V5.58671C10.7394 4.37214 10.7266 4.19315 10.6179 3.98219C10.3047 3.36851 9.56958 3.10003 8.9495 3.36851ZM8.1824 13.5262C8.1824 16.3325 8.16962 16.8823 8.09291 16.8823C7.89474 16.8823 6.45004 16.3517 5.89389 16.0768C5.12679 15.6933 4.55785 15.1563 4.34051 14.6065C4.22544 14.2997 4.19348 14.1143 4.19987 13.6221C4.20627 12.676 4.51311 11.9664 5.20989 11.3336C5.86192 10.7391 7.08289 10.2468 8.07373 10.1765C8.17601 10.1701 8.1824 10.3683 8.1824 13.5262ZM11.8389 22.0666C13.8973 22.7889 14.7859 23.7159 14.8754 25.2053C14.9712 26.7395 14.1466 28.0436 12.6572 28.7276C12.2544 28.9066 11.1677 29.2198 10.9248 29.2198C10.8097 29.2198 10.8033 29.092 10.8033 25.4802V21.7406L10.9823 21.7789C11.0782 21.8045 11.4618 21.9323 11.8389 22.0666Z" fill="black"/>
<path d="M33.9785 14.3536C34.1737 14.5488 34.4903 14.5488 34.6856 14.3536L37.8676 11.1716C38.0628 10.9763 38.0628 10.6597 37.8676 10.4645C37.6723 10.2692 37.3557 10.2692 37.1605 10.4645L34.332 13.2929L31.5036 10.4645C31.3083 10.2692 30.9918 10.2692 30.7965 10.4645C30.6012 10.6597 30.6012 10.9763 30.7965 11.1716L33.9785 14.3536ZM33.832 1L33.832 14L34.832 14L34.832 1L33.832 1Z" fill="black"/>
<path d="M25.6856 0.646447C25.4903 0.451184 25.1737 0.451184 24.9785 0.646447L21.7965 3.82843C21.6012 4.02369 21.6012 4.34027 21.7965 4.53553C21.9918 4.7308 22.3083 4.7308 22.5036 4.53553L25.332 1.70711L28.1605 4.53553C28.3557 4.7308 28.6723 4.7308 28.8676 4.53553C29.0628 4.34027 29.0628 4.02369 28.8676 3.82843L25.6856 0.646447ZM25.832 14L25.832 1L24.832 1L24.832 14L25.832 14Z" fill="black"/>
</svg>
