<svg width="23" height="23" viewBox="0 0 23 23" fill="none" xmlns="http://www.w3.org/2000/svg">
<path d="M11.1182 1.8147C10.9385 1.89556 10.7588 2.09321 10.6734 2.29985C10.615 2.43911 10.6016 2.71313 10.6016 3.98442C10.6016 5.36802 10.6105 5.52075 10.6869 5.68247C11.0148 6.38774 11.9852 6.38774 12.3131 5.68247C12.3895 5.52075 12.3984 5.36802 12.3984 3.97544C12.3984 2.47505 12.3984 2.43911 12.2996 2.24595C12.2412 2.13813 12.1199 1.98989 12.0256 1.91353C11.8773 1.79673 11.81 1.77427 11.5539 1.76528C11.3652 1.7563 11.2035 1.77427 11.1182 1.8147Z" fill="#0CA2BE"/>
<path d="M0.651916 6.48693C0.41383 6.57677 0.153283 6.85978 0.0903928 7.10236C0.0319944 7.32247 0.0499631 7.51564 0.157776 7.74025C0.243127 7.92443 2.38141 9.86505 2.59254 9.9549C2.80817 10.0447 3.16305 10.0313 3.36969 9.92794C3.80543 9.70783 3.95817 9.19572 3.73805 8.72404C3.66617 8.56232 1.58629 6.65763 1.3527 6.53634C1.15055 6.43302 0.858557 6.41505 0.651916 6.48693Z" fill="#0CA2BE"/>
<path d="M21.7738 6.48693C21.5627 6.56329 21.639 6.5004 20.3857 7.62794C19.7658 8.18947 19.2986 8.64318 19.2582 8.72853C19.0425 9.19572 19.1998 9.70783 19.631 9.92794C19.8377 10.0313 20.197 10.0447 20.4082 9.9549C20.6283 9.86505 22.7531 7.93341 22.8429 7.74474C23.0226 7.3629 22.9642 7.00353 22.6677 6.71154C22.4027 6.44201 22.1062 6.37013 21.7738 6.48693Z" fill="#0CA2BE"/>
<path d="M10.6018 8.96662C9.89649 9.04748 9.32149 9.1508 8.82735 9.27658C5.73672 10.0672 2.77188 12.2504 0.871681 15.1389C0.440431 15.7947 0.112502 16.3832 0.0406265 16.6213C-0.134569 17.1963 0.359572 17.7848 0.970509 17.7354C1.36133 17.7039 1.52305 17.5557 1.90488 16.8908C2.66856 15.5567 3.57598 14.4516 4.69004 13.4903C6.78789 11.6844 9.13281 10.7365 11.5092 10.7365C12.9377 10.7365 14.3033 11.0735 15.7229 11.7742C16.9357 12.3762 17.8791 13.068 18.9617 14.1461C19.8961 15.085 20.5205 15.8891 21.1449 16.9807C21.4729 17.5467 21.6525 17.7039 22.0299 17.7354C22.6408 17.7848 23.135 17.1963 22.9598 16.6213C22.834 16.199 22.0973 15.0401 21.4145 14.1821C19.1504 11.352 16.2215 9.54611 13.0949 9.04748C12.6682 8.9801 10.9566 8.92619 10.6018 8.96662Z" fill="#0CA2BE"/>
<path d="M10.7364 12.4928C10.3276 12.5647 9.63581 12.8207 9.24499 13.0543C8.47682 13.517 7.75807 14.3481 7.42565 15.1656C7.1696 15.79 7.08425 16.3066 7.1112 17.0254C7.14714 17.9193 7.34929 18.5617 7.83893 19.2939C8.42292 20.1789 9.31237 20.8213 10.359 21.1223C10.669 21.2121 10.8128 21.2256 11.5001 21.2256C12.1874 21.2256 12.3311 21.2121 12.6411 21.1223C13.7102 20.8123 14.5817 20.1744 15.1881 19.258C16.109 17.852 16.145 16.0775 15.278 14.5772C14.995 14.0875 14.2628 13.3553 13.7596 13.0543C13.3464 12.8117 12.668 12.5602 12.2188 12.4928C11.8729 12.4344 11.0823 12.4389 10.7364 12.4928ZM12.0481 14.2897C12.7938 14.4424 13.5036 14.9994 13.8315 15.6912C14.0381 16.1225 14.1055 16.4145 14.1055 16.8592C14.1055 17.5689 13.8405 18.1934 13.3194 18.71C12.8163 19.2131 12.2323 19.4512 11.5001 19.4512C10.7723 19.4512 10.1839 19.2086 9.68073 18.71C9.03386 18.0676 8.76432 17.1736 8.94401 16.2977C9.13718 15.3633 9.94577 14.5322 10.8801 14.3031C11.1811 14.2313 11.7382 14.2268 12.0481 14.2897Z" fill="#0CA2BE"/>
</svg>
