<svg width="24" height="24" viewBox="0 0 24 24" fill="none" xmlns="http://www.w3.org/2000/svg">
<path d="M19.5 5.25H21V7.5H19.5V5.25ZM21.75 3H24V4.5H21.75V3ZM19.5 0H21V2.25H19.5V0ZM16.5 3H18.75V4.5H16.5V3ZM14.25 12V14.025L12.375 13.5L12 14.925L13.8 15.45L12.75 17.25L14.025 18L15 16.35L15.975 18L17.25 17.25L16.2 15.45L18 14.925L17.625 13.5L15.75 14.025V12H14.25ZM9.75 12V9.75H12V8.25H9.75V6H8.25V8.25H6V9.75H8.25V12H9.75Z" fill="#00FFD1"/>
<path d="M19.5 19.5H4.5V4.5H14.25V3H4.5C4.10254 3.00119 3.7217 3.1596 3.44065 3.44065C3.1596 3.7217 3.00119 4.10254 3 4.5V19.5C3.00119 19.8975 3.1596 20.2783 3.44065 20.5593C3.7217 20.8404 4.10254 20.9988 4.5 21H19.5C19.8975 20.9988 20.2783 20.8404 20.5593 20.5593C20.8404 20.2783 20.9988 19.8975 21 19.5V9.75H19.5V19.5Z" fill="#00FFD1"/>
</svg>
