<svg width="24" height="24" viewBox="0 0 24 24" fill="none" xmlns="http://www.w3.org/2000/svg">
<path d="M19 22.0003H5C4.73478 22.0003 4.48043 21.895 4.29289 21.7075C4.10536 21.5199 4 21.2656 4 21.0003V11.4143C4.00006 11.1492 4.10545 10.8948 4.293 10.7073L11.293 3.70735C11.3859 3.61437 11.4962 3.54061 11.6176 3.49029C11.739 3.43996 11.8691 3.41406 12.0005 3.41406C12.1319 3.41406 12.262 3.43996 12.3834 3.49029C12.5048 3.54061 12.6151 3.61437 12.708 3.70735L19.708 10.7073C19.801 10.8001 19.8746 10.9103 19.9247 11.0316C19.9748 11.153 20.0004 11.2831 20 11.4143V21.0003C20 21.2656 19.8946 21.5199 19.7071 21.7075C19.5196 21.895 19.2652 22.0003 19 22.0003ZM10 15.0003H14V20.0003H18V11.8283L12 5.82835L6 11.8283V20.0003H10V15.0003Z" fill="#00FFD1"/>
</svg>
