<svg width="24" height="24" viewBox="0 0 24 24" fill="none" xmlns="http://www.w3.org/2000/svg">
<path d="M8.25 5.75C7.84 5.75 7.5 5.41 7.5 5V2C7.5 1.59 7.84 1.25 8.25 1.25C8.66 1.25 9 1.59 9 2V5C9 5.41 8.66 5.75 8.25 5.75Z" fill="black"/>
<path d="M15.75 5.75C15.34 5.75 15 5.41 15 5V2C15 1.59 15.34 1.25 15.75 1.25C16.16 1.25 16.5 1.59 16.5 2V5C16.5 5.41 16.16 5.75 15.75 5.75Z" fill="black"/>
<path d="M12.0001 14.09C12.5201 14.09 12.9001 13.78 12.9001 13.29C12.9001 12.79 12.5201 12.5 12.0001 12.5C11.4801 12.5 11.1001 12.79 11.1001 13.29C11.1001 13.78 11.4801 14.09 12.0001 14.09Z" fill="black"/>
<path d="M12.0001 17.0001C12.6297 17.0001 13.1401 16.5838 13.1401 16.0701C13.1401 15.5565 12.6297 15.1401 12.0001 15.1401C11.3705 15.1401 10.8601 15.5565 10.8601 16.0701C10.8601 16.5838 11.3705 17.0001 12.0001 17.0001Z" fill="black"/>
<path d="M6.78371 7.82992L6.78364 7.83002L6.79265 7.83603C6.90892 7.91354 7.03288 7.97549 7.12646 8.02225L7.13639 8.02721C7.25799 8.08801 7.38228 8.13822 7.50917 8.17676C7.65543 8.22499 7.81993 8.26352 8.0009 8.27772C8.19349 8.30076 8.38651 8.30076 8.5791 8.27772C8.7577 8.26371 8.92026 8.22599 9.06507 8.17865C9.20095 8.1406 9.33077 8.08927 9.45242 8.02281L9.45354 8.02225C9.54559 7.97625 9.66704 7.91555 9.78165 7.83981C10.5412 7.35944 11.04 6.50294 11.04 5.54V4.5C11.04 4.22614 11.2661 4 11.54 4H12.46C12.7339 4 12.96 4.22614 12.96 4.5V5.54C12.96 7.15243 14.3525 8.44827 16.0014 8.27735C17.4645 8.12705 18.46 6.79593 18.46 5.41V5.31C18.46 4.89534 18.937 4.65521 19.2699 4.89997C20.3216 5.70118 21 6.94655 21 8.37V17.13C21 19.5439 19.0439 21.5 16.63 21.5H7.37C4.95614 21.5 3 19.5439 3 17.13V8.37C3 8.25164 3.0084 8.13032 3.01852 7.98859C3.02848 7.86932 3.03689 7.78217 3.05193 7.69944L3.05405 7.68781L3.05561 7.67608C3.07284 7.54691 3.09829 7.42103 3.13076 7.30736L3.13084 7.30738L3.13312 7.29883C3.17419 7.14482 3.20713 7.02347 3.25424 6.9057C3.26228 6.88558 3.26888 6.86758 3.2733 6.85544L3.28208 6.8317L3.31002 6.78513L3.32789 6.72704C3.35144 6.6505 3.38719 6.57432 3.441 6.4661L3.45093 6.45618L3.48721 6.38361C3.55362 6.25079 3.61988 6.12828 3.68797 6.02913L3.70506 6.01204L3.73583 5.96205C3.8066 5.84705 3.87783 5.74595 3.95858 5.65786L3.97225 5.64294L3.98468 5.62697C4.16869 5.39037 4.38959 5.16906 4.63891 4.97316L4.66242 4.95469L4.66929 4.94782C4.66971 4.94751 4.67016 4.9472 4.67062 4.94687L4.67207 4.94583C4.68005 4.94014 4.69616 4.92864 4.71291 4.91561C4.72284 4.90789 4.73457 4.89843 4.74739 4.88727C4.75123 4.88456 4.75371 4.88291 4.75538 4.88184C4.75766 4.88037 4.75954 4.87925 4.76361 4.87721L4.83618 4.84093L4.84156 4.83555C5.16619 4.70844 5.54 4.94847 5.54 5.31V5.41C5.54 6.38032 6.01733 7.29467 6.78371 7.82992ZM9 16.24C9 16.9996 9.29716 17.6498 9.85503 18.0993C10.4004 18.5388 11.1481 18.75 12 18.75C12.8475 18.75 13.5947 18.5385 14.1407 18.0998C14.6991 17.6511 15 17.0013 15 16.24C15 15.5947 14.7492 15.0133 14.304 14.5787C14.5913 14.2184 14.76 13.7637 14.76 13.22C14.76 12.4234 14.4376 11.7856 13.9042 11.3575C13.3839 10.94 12.6997 10.75 12 10.75C11.3004 10.75 10.6144 10.94 10.092 11.3566C9.55631 11.7838 9.23 12.4217 9.23 13.22C9.23 13.7671 9.40519 14.2211 9.69115 14.5795C9.25053 15.014 9 15.5951 9 16.24Z" stroke="black"/>
</svg>
