<svg width="24" height="24" viewBox="0 0 24 24" fill="none" xmlns="http://www.w3.org/2000/svg">
<path d="M3 9.10986V14.8799C3 16.9999 3 16.9999 5 18.3499L10.5 21.5299C11.33 22.0099 12.68 22.0099 13.5 21.5299L19 18.3499C21 16.9999 21 16.9999 21 14.8899V9.10986C21 6.99986 21 6.99986 19 5.64986L13.5 2.46986C12.68 1.98986 11.33 1.98986 10.5 2.46986L5 5.64986C3 6.99986 3 6.99986 3 9.10986Z" stroke="#131117" stroke-width="1.5" stroke-linecap="round" stroke-linejoin="round"/>
<path d="M12 14.9999C13.6569 14.9999 15 13.6567 15 11.9999C15 10.343 13.6569 8.99986 12 8.99986C10.3431 8.99986 9 10.343 9 11.9999C9 13.6567 10.3431 14.9999 12 14.9999Z" stroke="#131117" stroke-width="1.5" stroke-linecap="round" stroke-linejoin="round"/>
</svg>
