<svg width="24" height="24" viewBox="0 0 24 24" fill="none" xmlns="http://www.w3.org/2000/svg">
<path d="M22 10V10.75C22.4142 10.75 22.75 10.4142 22.75 10H22ZM2 9.5H1.25C1.25 9.91421 1.58579 10.25 2 10.25V9.5ZM2 14.5V13.75C1.58579 13.75 1.25 14.0858 1.25 14.5H2ZM22 15H22.75C22.75 14.5858 22.4142 14.25 22 14.25V15ZM11 4.75C11 4.33579 10.6642 4 10.25 4C9.83579 4 9.5 4.33579 9.5 4.75H11ZM9.5 5.95C9.5 6.36421 9.83579 6.7 10.25 6.7C10.6642 6.7 11 6.36421 11 5.95H9.5ZM11 18.05C11 17.6358 10.6642 17.3 10.25 17.3C9.83579 17.3 9.5 17.6358 9.5 18.05H11ZM9.5 19.25C9.5 19.6642 9.83579 20 10.25 20C10.6642 20 11 19.6642 11 19.25H9.5ZM11 10.05C11 9.63577 10.6642 9.29999 10.25 9.29999C9.83579 9.29999 9.5 9.63577 9.5 10.05H11ZM9.5 13.95C9.5 14.3642 9.83579 14.7 10.25 14.7C10.6642 14.7 11 14.3642 11 13.95H9.5ZM20.25 12.5C20.25 11.5342 21.0342 10.75 22 10.75V9.25C20.2058 9.25 18.75 10.7058 18.75 12.5H20.25ZM22.75 10V9H21.25V10H22.75ZM22.75 9C22.75 7.00536 22.5188 5.45818 21.5303 4.46967C20.5418 3.48116 18.9946 3.25 17 3.25V4.75C19.0054 4.75 19.9582 5.01884 20.4697 5.53033C20.9812 6.04182 21.25 6.99464 21.25 9H22.75ZM17 3.25H7V4.75H17V3.25ZM7 3.25C5.00536 3.25 3.45818 3.48116 2.46967 4.46967C1.48116 5.45818 1.25 7.00536 1.25 9H2.75C2.75 6.99464 3.01884 6.04182 3.53033 5.53033C4.04182 5.01884 4.99464 4.75 7 4.75V3.25ZM1.25 9V9.5H2.75V9H1.25ZM2 10.25C2.96579 10.25 3.75 11.0342 3.75 12H5.25C5.25 10.2058 3.79421 8.75 2 8.75V10.25ZM3.75 12C3.75 12.9658 2.96579 13.75 2 13.75V15.25C3.79421 15.25 5.25 13.7942 5.25 12H3.75ZM1.25 14.5V15H2.75V14.5H1.25ZM1.25 15C1.25 16.9946 1.48116 18.5418 2.46967 19.5303C3.45818 20.5188 5.00536 20.75 7 20.75V19.25C4.99464 19.25 4.04182 18.9812 3.53033 18.4697C3.01884 17.9582 2.75 17.0054 2.75 15H1.25ZM7 20.75H17V19.25H7V20.75ZM17 20.75C18.9946 20.75 20.5418 20.5188 21.5303 19.5303C22.5188 18.5418 22.75 16.9946 22.75 15H21.25C21.25 17.0054 20.9812 17.9582 20.4697 18.4697C19.9582 18.9812 19.0054 19.25 17 19.25V20.75ZM22 14.25C21.0342 14.25 20.25 13.4658 20.25 12.5H18.75C18.75 14.2942 20.2058 15.75 22 15.75V14.25ZM9.5 4.75V5.95H11V4.75H9.5ZM9.5 18.05V19.25H11V18.05H9.5ZM9.5 10.05V13.95H11V10.05H9.5Z" fill="black"/>
</svg>
