<svg width="48" height="48" viewBox="0 0 48 48" fill="none" xmlns="http://www.w3.org/2000/svg">
<circle cx="24" cy="24" r="24" fill="#E09FFF"/>
<path d="M34.0144 13.984C32.7352 12.7044 31.0276 12 29.206 12C27.3848 12 25.6772 12.7044 24.3976 13.984L13.984 24.398C12.7044 25.6772 12 27.3848 12 29.206C12 31.0276 12.7044 32.7352 13.984 34.0144C15.2632 35.294 16.9708 35.9984 18.7924 35.9984C20.614 35.9984 22.3212 35.294 23.6008 34.0144L34.0148 23.6004C35.2944 22.3212 35.9988 20.6136 35.9988 18.792C35.9988 16.9704 35.294 15.2632 34.0144 13.984ZM33.4488 23.0348L28.6404 27.8432L20.1552 19.358L24.9636 14.5496C26.0916 13.4212 27.5984 12.8 29.206 12.8C30.814 12.8 32.3204 13.4212 33.4488 14.5496C34.5772 15.6776 35.1984 17.1844 35.1984 18.792C35.1984 20.3996 34.5772 21.9068 33.4488 23.0348Z" fill="#9137BC"/>
</svg>
