<svg width="23" height="23" viewBox="0 0 23 23" fill="none" xmlns="http://www.w3.org/2000/svg">
<path d="M11.5003 21.901C11.9028 21.8917 12.289 21.7404 12.5906 21.4739C12.8923 21.2073 13.0899 20.8426 13.1486 20.4443H9.78809C9.84844 20.8534 10.0553 21.2267 10.3703 21.4946C10.6853 21.7626 11.0868 21.907 11.5003 21.901Z" fill="white"/>
<path d="M20.7709 17.78C20.1548 17.2308 19.6154 16.6012 19.1673 15.9081C18.678 14.9514 18.3848 13.9066 18.3048 12.835V9.67893C18.3022 9.29556 18.268 8.91306 18.2026 8.53532C17.6997 8.4348 17.2164 8.25356 16.7714 7.99865C16.9411 8.5448 17.0272 9.11343 17.027 9.68532V12.8414C17.1053 14.1486 17.4649 15.4235 18.0812 16.5789C18.5223 17.2779 19.0456 17.9214 19.6401 18.4956H3.27811C3.87254 17.9214 4.39591 17.2779 4.837 16.5789C5.45328 15.4235 5.81286 14.1486 5.89116 12.8414V9.67893C5.8878 8.93953 6.03032 8.20674 6.31056 7.5225C6.59079 6.83826 7.00325 6.21602 7.5243 5.69141C8.04535 5.16679 8.66477 4.75011 9.34709 4.46522C10.0294 4.18033 10.7612 4.03282 11.5006 4.03115C12.5827 4.03202 13.6406 4.35203 14.5417 4.95115C14.4424 4.58634 14.3866 4.21103 14.3756 3.83309V3.43059C13.7085 3.10243 12.9919 2.88657 12.2545 2.79171V1.98671C12.2545 1.7605 12.1646 1.54356 12.0047 1.3836C11.8447 1.22365 11.6278 1.13379 11.4016 1.13379C11.1754 1.13379 10.9584 1.22365 10.7985 1.3836C10.6385 1.54356 10.5487 1.7605 10.5487 1.98671V2.82365C8.89759 3.05656 7.38653 3.87893 6.29444 5.13894C5.20236 6.39895 4.60299 8.01152 4.607 9.67893V12.835C4.52698 13.9066 4.23374 14.9514 3.7445 15.9081C3.30423 16.5996 2.77351 17.2291 2.16644 17.78C2.09829 17.8399 2.04367 17.9136 2.00622 17.9962C1.96876 18.0788 1.94933 18.1685 1.94922 18.2592V19.1281C1.94922 19.2975 2.01653 19.46 2.13634 19.5799C2.25616 19.6997 2.41866 19.767 2.58811 19.767H20.3492C20.5187 19.767 20.6812 19.6997 20.801 19.5799C20.9208 19.46 20.9881 19.2975 20.9881 19.1281V18.2592C20.988 18.1685 20.9686 18.0788 20.9311 17.9962C20.8937 17.9136 20.839 17.8399 20.7709 17.78Z" fill="white"/>
<path d="M19.1671 7.02756C20.9313 7.02756 22.3615 5.59736 22.3615 3.83312C22.3615 2.06887 20.9313 0.638672 19.1671 0.638672C17.4029 0.638672 15.9727 2.06887 15.9727 3.83312C15.9727 5.59736 17.4029 7.02756 19.1671 7.02756Z" fill="#F06060"/>
</svg>
