<svg width="23" height="25" viewBox="0 0 23 25" fill="none" xmlns="http://www.w3.org/2000/svg">
<path d="M17.9837 10.9375C18.4529 11.0677 18.8996 11.2444 19.3239 11.4676C19.7482 11.6908 20.1924 12.0303 20.6566 12.486C21.1208 12.9418 21.5176 13.4789 21.847 14.0974C22.1764 14.7159 22.451 15.5157 22.6706 16.4969C22.8902 17.4781 23 18.5779 23 19.7963C23 21.2286 22.5009 22.454 21.5026 23.4724C20.5043 24.4908 19.3014 25 17.8939 25H5.10612C3.69857 25 2.49566 24.4908 1.4974 23.4724C0.499132 22.454 0 21.2286 0 19.7963C0 18.5779 0.109809 17.4781 0.329427 16.4969C0.549045 15.5157 0.823568 14.7159 1.15299 14.0974C1.48242 13.4789 1.87923 12.9418 2.34342 12.486C2.80762 12.0303 3.25184 11.6908 3.67611 11.4676C4.10037 11.2444 4.54709 11.0677 5.01628 10.9375C4.22765 9.77493 3.83333 8.51004 3.83333 7.14286C3.83333 6.1756 4.03548 5.25251 4.43978 4.3736C4.84408 3.4947 5.39062 2.73438 6.07943 2.09263C6.76823 1.45089 7.58431 0.941685 8.52767 0.565011C9.47103 0.188337 10.4618 0 11.5 0C12.5382 0 13.529 0.188337 14.4723 0.565011C15.4157 0.941685 16.2318 1.45089 16.9206 2.09263C17.6094 2.73438 18.1559 3.4947 18.5602 4.3736C18.9645 5.25251 19.1667 6.1756 19.1667 7.14286C19.1667 8.51004 18.7724 9.77493 17.9837 10.9375ZM11.5 1.78571C9.91276 1.78571 8.55762 2.30887 7.43457 3.35519C6.31152 4.40151 5.75 5.66406 5.75 7.14286C5.75 8.62165 6.31152 9.88421 7.43457 10.9305C8.55762 11.9768 9.91276 12.5 11.5 12.5C13.0872 12.5 14.4424 11.9768 15.5654 10.9305C16.6885 9.88421 17.25 8.62165 17.25 7.14286C17.25 5.66406 16.6885 4.40151 15.5654 3.35519C14.4424 2.30887 13.0872 1.78571 11.5 1.78571ZM17.8939 23.2143C18.7724 23.2143 19.5235 22.8818 20.1475 22.2168C20.7714 21.5518 21.0833 20.745 21.0833 19.7963C21.0833 17.5735 20.6915 15.8203 19.9079 14.5368C19.1242 13.2533 17.9987 12.5791 16.5312 12.514C15.0838 13.6951 13.4067 14.2857 11.5 14.2857C9.59332 14.2857 7.91623 13.6951 6.46875 12.514C5.0013 12.5791 3.87576 13.2533 3.09212 14.5368C2.30849 15.8203 1.91667 17.5735 1.91667 19.7963C1.91667 20.745 2.22862 21.5518 2.85254 22.2168C3.47645 22.8818 4.22765 23.2143 5.10612 23.2143H17.8939Z" fill="white"/>
</svg>
