<svg width="24" height="24" viewBox="0 0 24 24" fill="none" xmlns="http://www.w3.org/2000/svg">
<path d="M12.7998 16.7998H14.3998M19.9998 13.5998V11.9998C19.9998 11.5755 19.8312 11.1685 19.5312 10.8684C19.2311 10.5684 18.8242 10.3998 18.3998 10.3998H2.3998C1.97546 10.3998 1.56849 10.5684 1.26843 10.8684C0.968376 11.1685 0.799805 11.5755 0.799805 11.9998V21.5998C0.799805 22.0242 0.968376 22.4311 1.26843 22.7312C1.56849 23.0312 1.97546 23.1998 2.3998 23.1998H18.3998C18.8242 23.1998 19.2311 23.0312 19.5312 22.7312C19.8312 22.4311 19.9998 22.0242 19.9998 21.5998V19.9998V13.5998ZM19.9998 13.5998H13.5998C12.7511 13.5998 11.9372 13.9369 11.3371 14.5371C10.7369 15.1372 10.3998 15.9511 10.3998 16.7998C10.3998 17.6485 10.7369 18.4624 11.3371 19.0625C11.9372 19.6627 12.7511 19.9998 13.5998 19.9998H19.9998V13.5998ZM19.9998 13.5998C20.8485 13.5998 21.6624 13.9369 22.2625 14.5371C22.8627 15.1372 23.1998 15.9511 23.1998 16.7998C23.1998 17.6485 22.8627 18.4624 22.2625 19.0625C21.6624 19.6627 20.8485 19.9998 19.9998 19.9998V13.5998ZM5.5998 10.3998V5.5998C5.5998 4.32677 6.10552 3.10587 7.00569 2.20569C7.90587 1.30552 9.12677 0.799805 10.3998 0.799805C11.6728 0.799805 12.8937 1.30552 13.7939 2.20569C14.6941 3.10587 15.1998 4.32677 15.1998 5.5998V10.3998H5.5998ZM19.1998 16.7998H20.7998H19.1998ZM15.9998 16.7998H17.5998H15.9998Z" stroke="#00FFD1"/>
</svg>
