<svg width="48" height="48" viewBox="0 0 48 48" fill="none" xmlns="http://www.w3.org/2000/svg">
<circle cx="24" cy="24" r="24" fill="#87F0FF"/>
<path d="M37.5717 21.4365C37.2808 21.0815 36.8713 20.8782 36.4482 20.8782H35.8121V20.3559C35.8121 19.4176 35.0106 18.6538 34.0258 18.6538H33.1871V17.6897C33.1871 17.236 32.9968 16.7933 32.6656 16.4748C32.0068 15.8417 30.868 15.8417 30.2091 16.4748C29.8775 16.7938 29.6872 17.2364 29.6872 17.6902V22.2132H18.3124V17.6902C18.3124 17.2364 18.1225 16.7938 17.7909 16.4752C17.132 15.8422 15.9932 15.8422 15.3344 16.4752C15.0027 16.7938 14.8124 17.2364 14.8124 17.6902V18.6542H13.8718C13.4295 18.6542 13.0113 18.8166 12.6936 19.1116C12.3721 19.4118 12.1875 19.8309 12.1875 20.2607V20.8782H11.5575C11.1322 20.8782 10.721 21.0824 10.4292 21.4387C10.1527 21.7768 10 22.2212 10 22.6897V25.2949C10 25.7633 10.1527 26.2077 10.4296 26.5458C10.7214 26.9022 11.1327 27.1064 11.5575 27.1064H12.1875V27.7239C12.1875 28.1536 12.3721 28.5727 12.6945 28.8739C13.0113 29.1684 13.4295 29.3308 13.8718 29.3308H14.8124V30.2948C14.8124 30.7486 15.0027 31.1912 15.3339 31.5093C15.6633 31.8256 16.0995 32 16.5624 32C17.0253 32 17.4614 31.8256 17.7909 31.5093C18.1225 31.1908 18.3124 30.7481 18.3124 30.2948V25.7718H29.6872V30.2948C29.6872 30.7486 29.8775 31.1912 30.2087 31.5093C30.5381 31.8256 30.9743 32 31.4372 32C31.9 32 32.3362 31.8256 32.6656 31.5093C32.9968 31.1908 33.1871 30.7481 33.1871 30.2948V29.3308H34.0258C35.0106 29.3308 35.8121 28.5674 35.8121 27.6287V27.1064H36.4482C36.8713 27.1064 37.2808 26.9026 37.5721 26.5481C37.8478 26.2113 38 25.7691 38 25.3024V22.6826C37.9996 22.2159 37.8478 21.7732 37.5717 21.4365ZM11.5575 26.2166C11.3908 26.2166 11.2289 26.1312 11.102 25.9764C10.9577 25.8007 10.875 25.552 10.875 25.2949V22.6897C10.875 22.4325 10.9577 22.1843 11.102 22.0081C11.2289 21.8533 11.3908 21.7679 11.5575 21.7679H12.1875V26.2166H11.5575ZM13.8718 28.441C13.6518 28.441 13.4378 28.3596 13.286 28.2181C13.1416 28.0833 13.0625 27.908 13.0625 27.7239V26.6615V21.323V20.2607C13.0625 20.0765 13.1416 19.9008 13.2851 19.7669C13.4383 19.6249 13.6518 19.5435 13.8718 19.5435H14.8124V28.441H13.8718ZM17.4374 30.2948C17.4374 30.5079 17.3494 30.7094 17.1902 30.8625C16.8621 31.1774 16.2632 31.1774 15.935 30.8625C15.7753 30.7094 15.6874 30.5074 15.6874 30.2948V28.8859V19.0987V17.6897C15.6874 17.4766 15.7753 17.2751 15.9346 17.1221C16.0987 16.9646 16.3275 16.8743 16.5624 16.8743C16.7973 16.8743 17.0261 16.9646 17.1902 17.1221C17.3494 17.2751 17.4374 17.4771 17.4374 17.6902V22.6581V25.3273V30.2948ZM18.3124 24.882V23.1025H29.6872V24.882H18.3124ZM32.3122 30.2948C32.3122 30.5079 32.2242 30.7094 32.065 30.8625C31.7368 31.1774 31.1379 31.1774 30.8098 30.8625C30.6501 30.7094 30.5622 30.5074 30.5622 30.2948V25.3269V22.6576V17.6902C30.5622 17.4771 30.6501 17.2756 30.8094 17.1225C30.9734 16.965 31.2022 16.8747 31.4372 16.8747C31.6721 16.8747 31.9009 16.965 32.065 17.1225C32.2242 17.2751 32.3122 17.4771 32.3122 17.6902V19.0991V28.8863V30.2948ZM34.9371 27.6287C34.9371 28.0767 34.5285 28.441 34.0258 28.441H33.1871V19.5435H34.0258C34.5281 19.5435 34.9371 19.9079 34.9371 20.3559V21.323V26.6615V27.6287ZM37.1246 25.302C37.1246 25.5573 37.0423 25.8034 36.8997 25.9782C36.7737 26.1321 36.6131 26.2166 36.4482 26.2166H35.8121V21.7679H36.4482C36.6131 21.7679 36.7737 21.8524 36.8997 22.0064C37.0428 22.1807 37.1246 22.4272 37.1246 22.6826V25.302Z" fill="#298693"/>
</svg>
