<svg width="60" height="60" viewBox="0 0 60 60" fill="none" xmlns="http://www.w3.org/2000/svg">
<g filter="url(#filter0_d_47_1497)">
<circle cx="30" cy="30" r="11" fill="#0A5177"/>
</g>
<g clip-path="url(#clip0_47_1497)">
<path fill-rule="evenodd" clip-rule="evenodd" d="M28.8974 23.1879C29.0376 23.1065 29.1962 23.0225 29.2517 23.0015C29.4818 22.9175 29.6008 22.9595 29.8203 23.1932C29.9736 23.3585 30.1243 23.6211 30.2751 23.9965C30.3914 24.2826 30.4364 24.3535 30.5025 24.3535C30.5686 24.3535 30.5897 24.3115 30.6717 24.007C30.759 23.6736 30.8409 23.5213 31.0075 23.3717C31.2217 23.18 31.4042 23.1354 31.9277 23.1512C32.6919 23.1774 33.0727 23.327 33.2207 23.6683C33.2868 23.8206 33.2736 24.1619 33.189 24.4716C33.0594 24.9547 32.7263 25.548 32.3957 25.8893C32.2477 26.0415 32.2239 26.0547 32.1022 26.0652C32.0282 26.0704 31.0366 26.0783 29.8943 26.0835L27.8159 26.0914L27.6864 25.989C27.3743 25.7449 27.0121 25.2146 26.864 24.7972C26.7715 24.5347 26.7503 24.2091 26.8138 23.9965C26.8481 23.8783 26.8852 23.8153 26.9804 23.7235C27.1655 23.5476 27.2977 23.5108 27.8715 23.4898C28.4109 23.4688 28.4241 23.4636 28.8974 23.1879ZM27.5092 26.2831L28.2734 26.2699C28.8367 26.2594 31.5311 26.2594 32.454 26.2699C32.5386 26.2699 32.6708 26.4065 32.6708 26.4905C32.6708 26.5272 32.6364 26.5955 32.5941 26.6427L32.5174 26.7294L30.1006 26.7372C28.4347 26.7425 27.6573 26.7372 27.5886 26.7162C27.4775 26.6847 27.3823 26.5797 27.3823 26.4905C27.3823 26.459 27.4114 26.3959 27.4458 26.3566L27.5092 26.2831ZM27.237 27.3752C26.8668 27.6246 26.6579 27.8005 26.2851 28.1707C25.0555 29.394 24.3918 30.9928 24.3865 32.7412C24.3839 33.7572 24.6351 34.445 25.2247 35.0278C25.9439 35.734 27.0783 36.1304 28.8235 36.2748C29.2942 36.3142 30.8305 36.3142 31.2826 36.2748C32.6286 36.1566 33.5805 35.8941 34.2706 35.4478C34.5351 35.2772 34.9052 34.9333 35.0639 34.7101C35.4976 34.1037 35.6721 33.3503 35.606 32.3527C35.487 30.5202 34.7149 28.9294 33.3901 27.7769C33.2685 27.6719 33.0463 27.5038 32.8956 27.4015L32.6206 27.2151H30.0478H27.475L27.237 27.3752Z" fill="white"/>
</g>
<defs>
<filter id="filter0_d_47_1497" x="0" y="0" width="60" height="60" filterUnits="userSpaceOnUse" color-interpolation-filters="sRGB">
<feFlood flood-opacity="0" result="BackgroundImageFix"/>
<feColorMatrix in="SourceAlpha" type="matrix" values="0 0 0 0 0 0 0 0 0 0 0 0 0 0 0 0 0 0 127 0" result="hardAlpha"/>
<feOffset/>
<feGaussianBlur stdDeviation="9.5"/>
<feComposite in2="hardAlpha" operator="out"/>
<feColorMatrix type="matrix" values="0 0 0 0 0 0 0 0 0 0 0 0 0 0 0 0 0 0 0.15 0"/>
<feBlend mode="normal" in2="BackgroundImageFix" result="effect1_dropShadow_47_1497"/>
<feBlend mode="normal" in="SourceGraphic" in2="effect1_dropShadow_47_1497" result="shape"/>
</filter>
<clipPath id="clip0_47_1497">
<rect width="11.8462" height="14.6226" fill="white" transform="translate(24.0769 22.3845)"/>
</clipPath>
</defs>
</svg>
